<mxfile host="app.diagrams.net" modified="2023-05-07T12:37:26.447Z" agent="Mozilla/5.0 (Macintosh; Intel Mac OS X 10_15_7) AppleWebKit/537.36 (KHTML, like Gecko) Chrome/112.0.0.0 Safari/537.36" etag="x7krkwPs-yhnkvJpnIfE" version="21.2.7" type="github">
  <diagram name="Page-1" id="8XETg-70EDmgeIA6E9z_">
    <mxGraphModel dx="968" dy="692" grid="1" gridSize="10" guides="1" tooltips="1" connect="1" arrows="1" fold="1" page="1" pageScale="1" pageWidth="850" pageHeight="1100" math="0" shadow="0">
      <root>
        <mxCell id="0" />
        <mxCell id="1" parent="0" />
        <mxCell id="nLy7EduG_a8Vsz1NF6yK-32" value="" style="rounded=0;whiteSpace=wrap;html=1;fillColor=default;dashed=1;" vertex="1" parent="1">
          <mxGeometry x="620" y="780" width="170" height="180" as="geometry" />
        </mxCell>
        <mxCell id="nLy7EduG_a8Vsz1NF6yK-30" value="" style="rounded=0;whiteSpace=wrap;html=1;fillColor=default;dashed=1;" vertex="1" parent="1">
          <mxGeometry x="20" y="780" width="400" height="180" as="geometry" />
        </mxCell>
        <mxCell id="nLy7EduG_a8Vsz1NF6yK-4" value="" style="rounded=0;whiteSpace=wrap;html=1;fillColor=#dae8fc;strokeColor=none;shadow=1;" vertex="1" parent="1">
          <mxGeometry x="290" y="1000" width="490" height="330" as="geometry" />
        </mxCell>
        <mxCell id="nLy7EduG_a8Vsz1NF6yK-5" value="" style="rounded=0;whiteSpace=wrap;html=1;fillColor=#d5e8d4;strokeColor=none;shadow=1;" vertex="1" parent="1">
          <mxGeometry x="310" y="1020" width="400" height="250" as="geometry" />
        </mxCell>
        <mxCell id="nLy7EduG_a8Vsz1NF6yK-2" value="" style="rounded=0;whiteSpace=wrap;html=1;fillColor=#fff2cc;strokeColor=none;shadow=1;" vertex="1" parent="1">
          <mxGeometry x="335" y="1040" width="295" height="180" as="geometry" />
        </mxCell>
        <mxCell id="nLy7EduG_a8Vsz1NF6yK-3" value="" style="rounded=0;whiteSpace=wrap;html=1;fillColor=#f8cecc;strokeColor=none;shadow=1;" vertex="1" parent="1">
          <mxGeometry x="355" y="1060" width="210" height="120" as="geometry" />
        </mxCell>
        <mxCell id="RhbkSSskdxaJuLNrv9G9-12" value="" style="rounded=0;whiteSpace=wrap;html=1;fillColor=#dae8fc;dashed=1;strokeColor=#6c8ebf;" parent="1" vertex="1">
          <mxGeometry x="215" y="170" width="330" height="140" as="geometry" />
        </mxCell>
        <mxCell id="RhbkSSskdxaJuLNrv9G9-4" style="edgeStyle=orthogonalEdgeStyle;rounded=0;orthogonalLoop=1;jettySize=auto;html=1;exitX=1;exitY=0.25;exitDx=0;exitDy=0;entryX=0;entryY=0.25;entryDx=0;entryDy=0;" parent="1" source="RhbkSSskdxaJuLNrv9G9-1" target="RhbkSSskdxaJuLNrv9G9-2" edge="1">
          <mxGeometry relative="1" as="geometry" />
        </mxCell>
        <mxCell id="RhbkSSskdxaJuLNrv9G9-1" value="Client" style="rounded=1;whiteSpace=wrap;html=1;" parent="1" vertex="1">
          <mxGeometry x="40" y="200" width="120" height="80" as="geometry" />
        </mxCell>
        <mxCell id="RhbkSSskdxaJuLNrv9G9-5" style="edgeStyle=orthogonalEdgeStyle;rounded=0;orthogonalLoop=1;jettySize=auto;html=1;exitX=0;exitY=0.75;exitDx=0;exitDy=0;entryX=1;entryY=0.75;entryDx=0;entryDy=0;" parent="1" source="RhbkSSskdxaJuLNrv9G9-2" target="RhbkSSskdxaJuLNrv9G9-1" edge="1">
          <mxGeometry relative="1" as="geometry" />
        </mxCell>
        <mxCell id="RhbkSSskdxaJuLNrv9G9-6" style="edgeStyle=orthogonalEdgeStyle;rounded=0;orthogonalLoop=1;jettySize=auto;html=1;exitX=1;exitY=0.25;exitDx=0;exitDy=0;entryX=0;entryY=0.25;entryDx=0;entryDy=0;" parent="1" source="RhbkSSskdxaJuLNrv9G9-2" target="RhbkSSskdxaJuLNrv9G9-3" edge="1">
          <mxGeometry relative="1" as="geometry" />
        </mxCell>
        <mxCell id="RhbkSSskdxaJuLNrv9G9-2" value="Proxy" style="rounded=1;whiteSpace=wrap;html=1;fillColor=#ffe6cc;strokeColor=#d79b00;" parent="1" vertex="1">
          <mxGeometry x="320" y="200" width="120" height="80" as="geometry" />
        </mxCell>
        <mxCell id="RhbkSSskdxaJuLNrv9G9-7" style="edgeStyle=orthogonalEdgeStyle;rounded=0;orthogonalLoop=1;jettySize=auto;html=1;exitX=0;exitY=0.75;exitDx=0;exitDy=0;entryX=1;entryY=0.75;entryDx=0;entryDy=0;" parent="1" source="RhbkSSskdxaJuLNrv9G9-3" target="RhbkSSskdxaJuLNrv9G9-2" edge="1">
          <mxGeometry relative="1" as="geometry" />
        </mxCell>
        <mxCell id="RhbkSSskdxaJuLNrv9G9-3" value="Server" style="rounded=1;whiteSpace=wrap;html=1;" parent="1" vertex="1">
          <mxGeometry x="600" y="200" width="120" height="80" as="geometry" />
        </mxCell>
        <mxCell id="RhbkSSskdxaJuLNrv9G9-8" value="client_in" style="text;html=1;strokeColor=none;fillColor=none;align=center;verticalAlign=middle;whiteSpace=wrap;rounded=0;" parent="1" vertex="1">
          <mxGeometry x="242" y="190" width="60" height="30" as="geometry" />
        </mxCell>
        <mxCell id="RhbkSSskdxaJuLNrv9G9-9" value="client_out" style="text;html=1;strokeColor=none;fillColor=none;align=center;verticalAlign=middle;whiteSpace=wrap;rounded=0;" parent="1" vertex="1">
          <mxGeometry x="242" y="260" width="60" height="30" as="geometry" />
        </mxCell>
        <mxCell id="RhbkSSskdxaJuLNrv9G9-10" value="server_out" style="text;html=1;strokeColor=none;fillColor=none;align=center;verticalAlign=middle;whiteSpace=wrap;rounded=0;" parent="1" vertex="1">
          <mxGeometry x="460" y="190" width="60" height="30" as="geometry" />
        </mxCell>
        <mxCell id="RhbkSSskdxaJuLNrv9G9-11" value="server_in" style="text;html=1;strokeColor=none;fillColor=none;align=center;verticalAlign=middle;whiteSpace=wrap;rounded=0;" parent="1" vertex="1">
          <mxGeometry x="460" y="260" width="60" height="30" as="geometry" />
        </mxCell>
        <mxCell id="eDuGHIDuK_WC9twe6rPm-4" style="edgeStyle=orthogonalEdgeStyle;rounded=0;orthogonalLoop=1;jettySize=auto;html=1;exitX=1;exitY=0.5;exitDx=0;exitDy=0;entryX=0.5;entryY=0;entryDx=0;entryDy=0;" parent="1" source="eDuGHIDuK_WC9twe6rPm-1" target="eDuGHIDuK_WC9twe6rPm-3" edge="1">
          <mxGeometry relative="1" as="geometry" />
        </mxCell>
        <mxCell id="eDuGHIDuK_WC9twe6rPm-8" style="edgeStyle=orthogonalEdgeStyle;rounded=0;orthogonalLoop=1;jettySize=auto;html=1;exitX=0;exitY=0.5;exitDx=0;exitDy=0;entryX=0;entryY=0.5;entryDx=0;entryDy=0;dashed=1;" parent="1" source="eDuGHIDuK_WC9twe6rPm-1" target="eDuGHIDuK_WC9twe6rPm-2" edge="1">
          <mxGeometry relative="1" as="geometry">
            <Array as="points">
              <mxPoint x="80" y="510" />
              <mxPoint x="80" y="670" />
            </Array>
          </mxGeometry>
        </mxCell>
        <mxCell id="eDuGHIDuK_WC9twe6rPm-1" value="HostA@Home" style="rounded=0;whiteSpace=wrap;html=1;" parent="1" vertex="1">
          <mxGeometry x="122" y="480" width="120" height="60" as="geometry" />
        </mxCell>
        <mxCell id="eDuGHIDuK_WC9twe6rPm-2" value="HostB@Company&lt;br&gt;&lt;b&gt;run web_server&lt;/b&gt;" style="rounded=0;whiteSpace=wrap;html=1;" parent="1" vertex="1">
          <mxGeometry x="122" y="640" width="120" height="60" as="geometry" />
        </mxCell>
        <mxCell id="eDuGHIDuK_WC9twe6rPm-5" style="edgeStyle=orthogonalEdgeStyle;rounded=0;orthogonalLoop=1;jettySize=auto;html=1;exitX=0.5;exitY=1;exitDx=0;exitDy=0;entryX=1;entryY=0.5;entryDx=0;entryDy=0;" parent="1" source="eDuGHIDuK_WC9twe6rPm-3" target="eDuGHIDuK_WC9twe6rPm-2" edge="1">
          <mxGeometry relative="1" as="geometry" />
        </mxCell>
        <mxCell id="eDuGHIDuK_WC9twe6rPm-3" value="HostC@Remote&lt;br&gt;&lt;b&gt;has public IP&lt;/b&gt;" style="rounded=0;whiteSpace=wrap;html=1;" parent="1" vertex="1">
          <mxGeometry x="480" y="560" width="120" height="60" as="geometry" />
        </mxCell>
        <mxCell id="eDuGHIDuK_WC9twe6rPm-6" value="[&lt;b&gt;LocalForward&lt;/b&gt;] HostA:3000 --&amp;gt; HostC:2000" style="text;html=1;strokeColor=none;fillColor=none;align=center;verticalAlign=middle;whiteSpace=wrap;rounded=0;" parent="1" vertex="1">
          <mxGeometry x="270" y="480" width="250" height="30" as="geometry" />
        </mxCell>
        <mxCell id="eDuGHIDuK_WC9twe6rPm-7" value="[&lt;b&gt;RemoteForward&lt;/b&gt;] HostC:2000 --&amp;gt; HostB:3000" style="text;html=1;strokeColor=none;fillColor=none;align=center;verticalAlign=middle;whiteSpace=wrap;rounded=0;" parent="1" vertex="1">
          <mxGeometry x="260" y="670" width="280" height="30" as="geometry" />
        </mxCell>
        <mxCell id="eDuGHIDuK_WC9twe6rPm-9" value="" style="shape=cross;whiteSpace=wrap;html=1;rotation=45;fillColor=#FF0000;" parent="1" vertex="1">
          <mxGeometry x="41" y="550" width="80" height="80" as="geometry" />
        </mxCell>
        <mxCell id="nLy7EduG_a8Vsz1NF6yK-1" value="真实请求" style="rounded=0;whiteSpace=wrap;html=1;fillColor=#d80073;strokeColor=#A50040;shadow=1;glass=0;fontColor=#ffffff;" vertex="1" parent="1">
          <mxGeometry x="375" y="1080" width="120" height="60" as="geometry" />
        </mxCell>
        <mxCell id="nLy7EduG_a8Vsz1NF6yK-6" value="VLESS" style="text;html=1;strokeColor=none;fillColor=none;align=center;verticalAlign=middle;whiteSpace=wrap;rounded=0;" vertex="1" parent="1">
          <mxGeometry x="495" y="1140" width="60" height="30" as="geometry" />
        </mxCell>
        <mxCell id="nLy7EduG_a8Vsz1NF6yK-7" value="WebSocket" style="text;html=1;strokeColor=none;fillColor=none;align=center;verticalAlign=middle;whiteSpace=wrap;rounded=0;" vertex="1" parent="1">
          <mxGeometry x="560" y="1185" width="60" height="30" as="geometry" />
        </mxCell>
        <mxCell id="nLy7EduG_a8Vsz1NF6yK-8" value="TLS" style="text;html=1;strokeColor=none;fillColor=none;align=center;verticalAlign=middle;whiteSpace=wrap;rounded=0;" vertex="1" parent="1">
          <mxGeometry x="631" y="1231" width="60" height="30" as="geometry" />
        </mxCell>
        <mxCell id="nLy7EduG_a8Vsz1NF6yK-9" value="TCP" style="text;html=1;strokeColor=none;fillColor=none;align=center;verticalAlign=middle;whiteSpace=wrap;rounded=0;" vertex="1" parent="1">
          <mxGeometry x="700" y="1290" width="60" height="30" as="geometry" />
        </mxCell>
        <mxCell id="nLy7EduG_a8Vsz1NF6yK-16" style="edgeStyle=orthogonalEdgeStyle;rounded=0;orthogonalLoop=1;jettySize=auto;html=1;exitX=1;exitY=0.5;exitDx=0;exitDy=0;entryX=0;entryY=0.5;entryDx=0;entryDy=0;startArrow=classic;startFill=1;" edge="1" parent="1" source="nLy7EduG_a8Vsz1NF6yK-10" target="nLy7EduG_a8Vsz1NF6yK-11">
          <mxGeometry relative="1" as="geometry" />
        </mxCell>
        <mxCell id="nLy7EduG_a8Vsz1NF6yK-10" value="浏览器" style="rounded=1;whiteSpace=wrap;html=1;fontStyle=1" vertex="1" parent="1">
          <mxGeometry x="40" y="840" width="120" height="60" as="geometry" />
        </mxCell>
        <mxCell id="nLy7EduG_a8Vsz1NF6yK-21" style="edgeStyle=orthogonalEdgeStyle;rounded=0;orthogonalLoop=1;jettySize=auto;html=1;exitX=1;exitY=0.5;exitDx=0;exitDy=0;endArrow=none;endFill=0;entryX=0;entryY=0.5;entryDx=0;entryDy=0;entryPerimeter=0;startArrow=classic;startFill=1;" edge="1" parent="1" source="nLy7EduG_a8Vsz1NF6yK-11" target="nLy7EduG_a8Vsz1NF6yK-23">
          <mxGeometry relative="1" as="geometry">
            <mxPoint x="420" y="870" as="targetPoint" />
          </mxGeometry>
        </mxCell>
        <mxCell id="nLy7EduG_a8Vsz1NF6yK-11" value="V2Ray Client" style="rounded=1;whiteSpace=wrap;html=1;fontStyle=1" vertex="1" parent="1">
          <mxGeometry x="280" y="840" width="120" height="60" as="geometry" />
        </mxCell>
        <mxCell id="nLy7EduG_a8Vsz1NF6yK-18" style="edgeStyle=orthogonalEdgeStyle;rounded=0;orthogonalLoop=1;jettySize=auto;html=1;exitX=1;exitY=0.5;exitDx=0;exitDy=0;startArrow=classic;startFill=1;" edge="1" parent="1" source="nLy7EduG_a8Vsz1NF6yK-12" target="nLy7EduG_a8Vsz1NF6yK-13">
          <mxGeometry relative="1" as="geometry" />
        </mxCell>
        <mxCell id="nLy7EduG_a8Vsz1NF6yK-12" value="V2Ray Server" style="rounded=1;whiteSpace=wrap;html=1;fontStyle=1" vertex="1" parent="1">
          <mxGeometry x="640" y="840" width="120" height="60" as="geometry" />
        </mxCell>
        <mxCell id="nLy7EduG_a8Vsz1NF6yK-13" value="目标服务器" style="rounded=1;whiteSpace=wrap;html=1;fontStyle=1" vertex="1" parent="1">
          <mxGeometry x="880" y="840" width="120" height="60" as="geometry" />
        </mxCell>
        <mxCell id="nLy7EduG_a8Vsz1NF6yK-25" style="edgeStyle=orthogonalEdgeStyle;rounded=0;orthogonalLoop=1;jettySize=auto;html=1;exitX=1;exitY=0.5;exitDx=0;exitDy=0;exitPerimeter=0;entryX=0;entryY=0.5;entryDx=0;entryDy=0;" edge="1" parent="1" source="nLy7EduG_a8Vsz1NF6yK-23" target="nLy7EduG_a8Vsz1NF6yK-12">
          <mxGeometry relative="1" as="geometry" />
        </mxCell>
        <mxCell id="nLy7EduG_a8Vsz1NF6yK-23" value="" style="strokeWidth=2;html=1;shape=mxgraph.flowchart.direct_data;whiteSpace=wrap;" vertex="1" parent="1">
          <mxGeometry x="430" y="850" width="180" height="40" as="geometry" />
        </mxCell>
        <mxCell id="nLy7EduG_a8Vsz1NF6yK-26" value="安全隧道" style="text;html=1;strokeColor=none;fillColor=none;align=center;verticalAlign=middle;whiteSpace=wrap;rounded=0;" vertex="1" parent="1">
          <mxGeometry x="485" y="855" width="60" height="30" as="geometry" />
        </mxCell>
        <mxCell id="nLy7EduG_a8Vsz1NF6yK-27" value="真实请求" style="text;html=1;strokeColor=none;fillColor=none;align=center;verticalAlign=middle;whiteSpace=wrap;rounded=0;" vertex="1" parent="1">
          <mxGeometry x="190" y="840" width="60" height="30" as="geometry" />
        </mxCell>
        <mxCell id="nLy7EduG_a8Vsz1NF6yK-28" value="真实请求" style="text;html=1;strokeColor=none;fillColor=none;align=center;verticalAlign=middle;whiteSpace=wrap;rounded=0;" vertex="1" parent="1">
          <mxGeometry x="790" y="840" width="60" height="30" as="geometry" />
        </mxCell>
        <mxCell id="nLy7EduG_a8Vsz1NF6yK-29" value="" style="shape=flexArrow;endArrow=classic;html=1;rounded=0;dashed=1;" edge="1" parent="1">
          <mxGeometry width="50" height="50" relative="1" as="geometry">
            <mxPoint x="515" y="900" as="sourcePoint" />
            <mxPoint x="515" y="980" as="targetPoint" />
          </mxGeometry>
        </mxCell>
        <mxCell id="nLy7EduG_a8Vsz1NF6yK-31" value="Local Machine" style="text;html=1;strokeColor=none;fillColor=none;align=center;verticalAlign=middle;whiteSpace=wrap;rounded=0;" vertex="1" parent="1">
          <mxGeometry x="30" y="790" width="90" height="30" as="geometry" />
        </mxCell>
        <mxCell id="nLy7EduG_a8Vsz1NF6yK-33" value="VPS" style="text;html=1;strokeColor=none;fillColor=none;align=center;verticalAlign=middle;whiteSpace=wrap;rounded=0;" vertex="1" parent="1">
          <mxGeometry x="620" y="780" width="50" height="30" as="geometry" />
        </mxCell>
      </root>
    </mxGraphModel>
  </diagram>
</mxfile>
